<?xml version="1.0" encoding="UTF-8"?>
<svg width="48px" height="48px" viewBox="0 0 48 48" version="1.1" xmlns="http://www.w3.org/2000/svg" xmlns:xlink="http://www.w3.org/1999/xlink">
    <title>切片</title>
    <g id="组件" stroke="none" stroke-width="1" fill="none" fill-rule="evenodd">
        <g id="4.项目搭建-组件库-图标" transform="translate(-174.000000, -681.000000)" fill="#0E478F">
            <g id="组件库/元素/默认备份-117" transform="translate(168.000000, 676.000000)">
                <g id="icon/操作/列表" transform="translate(6.000000, 5.000000)">
                    <path d="M35,6.15 C38.6255193,6.15 41.5931856,8.96660307 41.8341969,12.531007 L41.85,13 L41.85,35 C41.85,35.7455844 41.2455844,36.35 40.5,36.35 C39.8372583,36.35 39.2860574,35.8724371 39.1717503,35.2426642 L39.15,35 L39.15,13 C39.15,10.8428407 37.504143,9.07009199 35.3996727,8.86899753 L35,8.85 L13,8.85 C12.2544156,8.85 11.65,8.24558441 11.65,7.5 C11.65,6.8372583 12.1275629,6.2860574 12.7573358,6.17175031 L13,6.15 L35,6.15 Z" id="路径" fill-rule="nonzero"></path>
                    <path d="M7.5,11.65 C8.1627417,11.65 8.7139426,12.1275629 8.82824969,12.7573358 L8.85,13 L8.85,35 C8.85,37.1571593 10.495857,38.929908 12.6003273,39.1310025 L13,39.15 L33,39.15 C33.7455844,39.15 34.35,39.7544156 34.35,40.5 C34.35,41.1627417 33.8724371,41.7139426 33.2426642,41.8282497 L33,41.85 L13,41.85 C9.37448074,41.85 6.40681437,39.0333969 6.16580314,35.468993 L6.15,35 L6.15,13 C6.15,12.2544156 6.75441559,11.65 7.5,11.65 Z" id="路径" fill-rule="nonzero"></path>
                    <path d="M16.5,27 C18.6539105,27 20.4,28.7460895 20.4,30.9 C20.4,33.0539105 18.6539105,34.8 16.5,34.8 C14.3460895,34.8 12.6,33.0539105 12.6,30.9 C12.6,28.7460895 14.3460895,27 16.5,27 Z M16.5,29.1 C15.5058875,29.1 14.7,29.9058875 14.7,30.9 C14.7,31.8941125 15.5058875,32.7 16.5,32.7 C17.4941125,32.7 18.3,31.8941125 18.3,30.9 C18.3,29.9058875 17.4941125,29.1 16.5,29.1 Z" id="椭圆形" fill-rule="nonzero"></path>
                    <path d="M16.205459,21.6327963 C15.8310461,21.9939481 15.2400087,21.9885578 14.8762933,21.6193205 L12.2767981,19.0130978 C12.0996419,18.8359512 12,18.5948552 12,18.3433498 C12,18.0918443 12.0996419,17.8507483 12.2767981,17.6736017 L12.3222626,17.627784 C12.6913267,17.2558515 13.2823642,17.2558515 13.6514283,17.627784 L15.5397328,19.5319504 L19.7490095,15.2910776 C20.1341199,14.9029741 20.7385293,14.9029741 21.1236397,15.2910776 C21.5087501,15.6630101 21.5087501,16.2882879 21.1236397,16.6629156 L16.205459,21.6327963 Z" id="路径"></path>
                    <rect id="矩形" x="24" y="17.7" width="12" height="2.7" rx="0.5"></rect>
                    <rect id="矩形备份" x="24" y="29.7" width="12" height="2.7" rx="0.5"></rect>
                    <path d="M40.7683282,33.5366563 L44.782918,41.5658359 C44.8570147,41.7140295 44.7969474,41.8942314 44.6487539,41.9683282 C44.6070972,41.9891565 44.5611633,42 44.5145898,42 L36.4854102,42 C36.3197248,42 36.1854102,41.8656854 36.1854102,41.7 C36.1854102,41.6534265 36.1962537,41.6074925 36.217082,41.5658359 L40.2316718,33.5366563 C40.3057686,33.3884628 40.4859705,33.3283955 40.6341641,33.4024923 C40.6922223,33.4315214 40.7392991,33.4785981 40.7683282,33.5366563 Z" id="三角形" transform="translate(40.500000, 37.500000) rotate(-180.000000) translate(-40.500000, -37.500000) "></path>
                    <path d="M7.76832817,9.53665634 L11.782918,17.5658359 C11.8570147,17.7140295 11.7969474,17.8942314 11.6487539,17.9683282 C11.6070972,17.9891565 11.5611633,18 11.5145898,18 L3.48541022,18 C3.31972478,18 3.1854102,17.8656854 3.1854102,17.7 C3.1854102,17.6534265 3.19625373,17.6074925 3.21708205,17.5658359 L7.23167183,9.53665634 C7.30576861,9.38846278 7.48597053,9.32839547 7.63416408,9.40249225 C7.69222231,9.43152136 7.73929906,9.47859811 7.76832817,9.53665634 Z" id="三角形备份" transform="translate(7.500000, 13.500000) rotate(-360.000000) translate(-7.500000, -13.500000) "></path>
                </g>
            </g>
        </g>
    </g>
</svg>